<svg width="81" height="16" viewBox="0 0 81 16" fill="none" xmlns="http://www.w3.org/2000/svg">
<g clip-path="url(#clip0)">
<path fill-rule="evenodd" clip-rule="evenodd" d="M9.87336 9.80503H10.5057L14.5 13.8073L13.3073 15L9.30503 11.0057V10.3734L9.08891 10.1492C8.17639 10.9337 6.99171 11.4059 5.70297 11.4059C2.82933 11.4059 0.5 9.07662 0.5 6.20297C0.5 3.32933 2.82933 1 5.70297 1C8.57662 1 10.9059 3.32933 10.9059 6.20297C10.9059 7.49171 10.4337 8.67639 9.64923 9.58891L9.87336 9.80503ZM2.19702 6.30302C2.19702 8.29837 3.80773 9.90908 5.80308 9.90908C7.79844 9.90908 9.40914 8.29837 9.40914 6.30302C9.40914 4.30767 7.79844 2.69696 5.80308 2.69696C3.80773 2.69696 2.19702 4.30767 2.19702 6.30302Z" fill="#CACEDB"/>
<path d="M24.4648 2.66895H31.9233V12H30.6729V3.76074H25.709V12H24.4648V2.66895ZM38.4067 8.59131C38.4067 8.21468 38.3643 7.86979 38.2797 7.55664C38.1951 7.23926 38.0681 6.96631 37.8988 6.73779C37.7296 6.50928 37.5201 6.33154 37.2704 6.20459C37.025 6.0734 36.7393 6.00781 36.4135 6.00781C36.0876 6.00781 35.802 6.0734 35.5566 6.20459C35.3111 6.33154 35.1038 6.50928 34.9345 6.73779C34.7652 6.96631 34.6383 7.23926 34.5536 7.55664C34.469 7.86979 34.4267 8.21468 34.4267 8.59131C34.4267 8.97217 34.469 9.3234 34.5536 9.64502C34.6383 9.9624 34.7652 10.2354 34.9345 10.4639C35.1038 10.6924 35.3111 10.8722 35.5566 11.0034C35.802 11.1304 36.0876 11.1938 36.4135 11.1938C36.7393 11.1938 37.025 11.1304 37.2704 11.0034C37.5201 10.8722 37.7296 10.6924 37.8988 10.4639C38.0681 10.2354 38.1951 9.9624 38.2797 9.64502C38.3643 9.3234 38.4067 8.97217 38.4067 8.59131ZM39.5746 8.59131C39.5746 9.1499 39.5027 9.65348 39.3588 10.1021C39.2149 10.5464 39.0076 10.9251 38.7367 11.2383C38.4659 11.5514 38.1337 11.7926 37.7402 11.9619C37.3508 12.127 36.9086 12.2095 36.4135 12.2095C35.9184 12.2095 35.4762 12.127 35.0868 11.9619C34.6975 11.7926 34.3674 11.5514 34.0966 11.2383C33.8258 10.9251 33.6184 10.5464 33.4745 10.1021C33.3306 9.65348 33.2587 9.1499 33.2587 8.59131C33.2587 8.04118 33.3306 7.54395 33.4745 7.09961C33.6184 6.65527 33.8258 6.27653 34.0966 5.96338C34.3674 5.65023 34.6975 5.41113 35.0868 5.24609C35.4762 5.07682 35.9184 4.99219 36.4135 4.99219C36.9086 4.99219 37.3508 5.07682 37.7402 5.24609C38.1337 5.41113 38.4659 5.65023 38.7367 5.96338C39.0076 6.27653 39.2149 6.65527 39.3588 7.09961C39.5027 7.54395 39.5746 8.04118 39.5746 8.59131ZM40.8021 5.20166H41.97V10.4131H41.9954L45.3343 5.20166H46.6737V12H45.4993V6.78857H45.474L42.1414 12H40.8021V5.20166ZM53.6457 9.60693C53.6288 9.77197 53.595 9.95182 53.5442 10.1465C53.4976 10.3411 53.4278 10.5358 53.3347 10.7305C53.2416 10.9209 53.121 11.105 52.9729 11.2827C52.829 11.4604 52.6513 11.6191 52.4397 11.7588C52.2323 11.8942 51.9869 12.0021 51.7034 12.0825C51.4198 12.1672 51.0961 12.2095 50.7322 12.2095C50.5333 12.2095 50.3238 12.1841 50.1038 12.1333C49.8837 12.0868 49.6679 12.0063 49.4563 11.8921C49.2489 11.7778 49.05 11.6318 48.8596 11.4541C48.6734 11.2721 48.5084 11.0479 48.3645 10.7812C48.2248 10.5146 48.1127 10.2057 48.0281 9.85449C47.9434 9.49902 47.9011 9.09277 47.9011 8.63574C47.9011 8.07292 47.9815 7.56722 48.1423 7.11865C48.3031 6.66585 48.5168 6.28288 48.7834 5.96973C49.0543 5.65658 49.3674 5.41536 49.7229 5.24609C50.0826 5.07682 50.4592 4.99219 50.8528 4.99219C51.2082 4.99219 51.5214 5.03027 51.7922 5.10645C52.0673 5.18262 52.3064 5.28418 52.5095 5.41113C52.7126 5.53809 52.884 5.6862 53.0237 5.85547C53.1633 6.02051 53.2755 6.19613 53.3601 6.38232C53.449 6.56429 53.5146 6.75049 53.5569 6.94092C53.6034 7.13135 53.633 7.31331 53.6457 7.48682H52.5539C52.4947 7.02555 52.3339 6.66374 52.0715 6.40137C51.8134 6.139 51.4495 6.00781 50.9797 6.00781C50.6581 6.00781 50.3767 6.0734 50.1355 6.20459C49.8985 6.33577 49.6996 6.51986 49.5388 6.75684C49.3822 6.98958 49.2637 7.27311 49.1833 7.60742C49.1072 7.9375 49.0691 8.30143 49.0691 8.69922C49.0691 9.14779 49.1114 9.53499 49.196 9.86084C49.2807 10.1825 49.4013 10.4491 49.5579 10.6606C49.7144 10.868 49.9049 11.0225 50.1291 11.124C50.3577 11.2214 50.6158 11.27 50.9036 11.27C51.1067 11.27 51.2992 11.234 51.4812 11.1621C51.6632 11.0859 51.8261 10.978 51.97 10.8384C52.1138 10.6945 52.2366 10.5189 52.3381 10.3115C52.4397 10.1042 52.5116 9.8693 52.5539 9.60693H53.6457ZM54.7082 5.20166H55.8761V8.48975L59.3102 5.20166H60.84L57.6471 8.2041L60.8908 12H59.3864L56.7331 8.91504L55.8761 9.63232V12H54.7082V5.20166ZM70.2392 12V10.6035H71.5659V12H70.2392ZM65.9101 10.6035H67.2305V12H65.9101V10.6035ZM74.5747 12V10.6035H75.895V12H74.5747Z" fill="#767F9D"/>
</g>
<defs>
<clipPath id="clip0">
<rect width="80.5" height="15.5" fill="white" transform="translate(0.5)"/>
</clipPath>
</defs>
</svg>
